<svg xmlns="http://www.w3.org/2000/svg" data-name="pa" viewBox="0 0 50 62.5" x="0px" y="0px"><title>icone-gesturesespanse</title><path d="M28.236,25.19l-2.35,2.554a1.594,1.594,0,0,0,1.135.4c.48-.043,1.088-.066,1.753-.075.794-1.1,1.884-2.949,1.884-3.711a1.133,1.133,0,0,0-.255-.782,16.533,16.533,0,0,1-2.087.859A.644.644,0,0,1,28.236,25.19Z" fill="none"/><path d="M24.433,25.5a5.831,5.831,0,0,0,.591,1.262l1.689-1.836c-.773.211-1.329.331-1.391.344C25.324,25.269,24.933,25.367,24.433,25.5Z" fill="none"/><path d="M42.408,23.639c-.316-.209-.817-.06-1.342.394a12.14,12.14,0,0,0-1.136,2.184.683.683,0,0,1-.258.426l-.2.138a29.045,29.045,0,0,0-3.408,2.576.67.67,0,0,1-.5.2c-.06,0-6.019-.329-8.424-.111-1.844.158-3.352-1.663-3.961-3.6-.305.088-.577.171-.758.236a6.88,6.88,0,0,0-1.372.729.65.65,0,1,1-.748-1.062,8.115,8.115,0,0,1,1.68-.889c.788-.284,2.958-.829,3.051-.853.065-.014,4.12-.878,5.79-2.2a1.276,1.276,0,0,0,.628-1.225,1.419,1.419,0,0,0-.733-.917,4.134,4.134,0,0,0-.513.051c-.175.029-.525.089-1.771.246-2.534.321-3.624.018-4.749-.657a9.125,9.125,0,0,0-7.434-.645c-1.093.417-1.795.726-2.289.943a3.058,3.058,0,0,1-2.578.327V31.561c3.9.334,11.46.96,12.528.96h.152c8.711-.1,11.721-.5,12.711-.824,1.32-.431,4.228-3.573,4.762-4.508.513-.885,1.083-1.884,1.151-2.032A1.343,1.343,0,0,0,42.408,23.639Z" fill="none"/><path d="M45.236,26.221a.6.6,0,0,0-.088.844,5.836,5.836,0,0,1,1.386,5.076.6.6,0,0,0,.458.714.587.587,0,0,0,.129.015.6.6,0,0,0,.585-.473,7.019,7.019,0,0,0-1.625-6.088A.6.6,0,0,0,45.236,26.221Z"/><path d="M44.026,28.852a.6.6,0,0,0-.458.714,5.833,5.833,0,0,1-1.042,5.157.6.6,0,0,0,.088.844.6.6,0,0,0,.844-.088,7.016,7.016,0,0,0,1.281-6.169A.6.6,0,0,0,44.026,28.852Z"/><path d="M43.908,25.6a2.619,2.619,0,0,0-.786-3.044,2.38,2.38,0,0,0-2.907.5,11.066,11.066,0,0,0-1.489,2.667,40.16,40.16,0,0,0-3.372,2.521c-.769-.039-2.939-.143-5-.167a8.774,8.774,0,0,0,1.609-3.711,2.5,2.5,0,0,0-.436-1.464c.034-.026.073-.051.106-.077a2.484,2.484,0,0,0,1.095-2.5,2.665,2.665,0,0,0-1.743-1.944.678.678,0,0,0-.222-.022,6.372,6.372,0,0,0-.772.075c-.169.029-.509.086-1.718.239-2.381.3-3.154-.025-3.917-.483a10.323,10.323,0,0,0-8.566-.744c-1.121.428-1.842.745-2.349.968a2.094,2.094,0,0,1-1.973.2.607.607,0,0,0-.082,0v-.679a.65.65,0,0,0-.65-.65H3.072a.65.65,0,0,0,0,1.3h7.011V32.73H3.072a.65.65,0,0,0,0,1.3h7.661a.65.65,0,0,0,.65-.65v-.516c1.265.109,11.2.955,12.538.955h.032l.125,0c7.227-.079,11.511-.37,13.1-.888,1.814-.592,4.943-4.146,5.485-5.1A20.529,20.529,0,0,0,43.908,25.6Zm-13.25-1.237c0,.762-1.09,2.609-1.884,3.711-.665.009-1.273.031-1.753.075a1.594,1.594,0,0,1-1.135-.4l2.35-2.554a.644.644,0,0,0,.08-.755,16.533,16.533,0,0,0,2.087-.859A1.133,1.133,0,0,1,30.658,24.358Zm-3.944.567-1.689,1.836a5.831,5.831,0,0,1-.591-1.262c.5-.131.891-.23.89-.23C25.385,25.256,25.941,25.136,26.714,24.925Zm10.06,6.769c-.99.323-4,.729-12.711.824H23.91c-1.068,0-8.632-.626-12.528-.96V19.923A3.058,3.058,0,0,0,13.96,19.6c.494-.218,1.2-.526,2.289-.943a9.125,9.125,0,0,1,7.434.645c1.125.675,2.214.979,4.749.657,1.247-.157,1.6-.217,1.771-.246a4.134,4.134,0,0,1,.513-.051,1.419,1.419,0,0,1,.733.917,1.276,1.276,0,0,1-.628,1.225c-1.67,1.324-5.725,2.188-5.79,2.2-.092.023-2.263.568-3.051.853a8.115,8.115,0,0,0-1.68.889.65.65,0,1,0,.748,1.063,6.88,6.88,0,0,1,1.372-.729c.181-.065.453-.148.758-.236.609,1.936,2.118,3.756,3.961,3.6,2.406-.218,8.365.107,8.424.111a.67.67,0,0,0,.5-.2,29.045,29.045,0,0,1,3.408-2.576l.2-.138a.683.683,0,0,0,.258-.426,12.14,12.14,0,0,1,1.136-2.184c.525-.453,1.026-.6,1.342-.394a1.343,1.343,0,0,1,.279,1.516c-.068.148-.638,1.147-1.151,2.032C41,28.121,38.093,31.264,36.773,31.694Z"/></svg>